<svg xmlns="http://www.w3.org/2000/svg" width="25" height="25" viewBox="0 0 25 25">
    <path fill="#A2A6A9" fill-rule="evenodd" d="M10.33 2.941c-3.07 0-6.212 2.543-6.212 4.825v3.447c0 1.506.644 4.553 2.59 6.1l-5.319 2.86s-1.39.612-1.39 1.379v2.068C0 24.382.624 25 1.39 25h17.808c.767 0 1.39-.618 1.39-1.38v-2.068c0-.812-1.39-1.379-1.39-1.379l-5.184-2.848c1.927-1.503 2.45-4.456 2.45-6.112V7.766c0-2.282-3.06-4.825-6.132-4.825m.002 1.47c2.427 0 4.577 2.027 4.577 3.248v3.507c0 1.301-.41 3.786-1.86 4.913a1.658 1.658 0 0 0-.636 1.445c.048.555.375 1.051.87 1.318l5.291 2.896c.047.026.106.053.156.075.124.05.276.139.387.216v1.5H1.47v-1.485c.12-.085.289-.186.421-.247.04-.016.08-.035.116-.057l5.429-2.91a1.651 1.651 0 0 0 .25-2.755c-1.408-1.116-2.014-3.589-2.014-4.91V7.66c0-1.192 2.277-3.247 4.66-3.247zm8.785 8.824v1.47S25 17.893 25 17.87v2.811c0 .762-.59 1.379-1.315 1.379h-1.628V20.68h1.628v-1.584c-.104-.075-5.985-2.988-5.985-3.017l-.053-2.844s1.62-3.12 1.62-4.397l-.15-4.426C17.968.869 13.236 1.47 13.236 1.47h-1.47S12.403.168 14.289.138c4.977-.078 6.3 4.274 6.3 4.274v4.412l-1.471 4.411z"/>
</svg>
