<svg xmlns="http://www.w3.org/2000/svg" width="25" height="25" viewBox="0 0 25 25">
    <g fill="none" fill-rule="evenodd">
        <path fill="#A2A6A9" fill-rule="nonzero" d="M2.316 12.932l-.08-.024a.673.673 0 0 1-.486-.645V8.509a2.326 2.326 0 0 1 2.333-2.314h17.68a2.326 2.326 0 0 1 2.334 2.314v3.818c0 .3-.2.564-.49.646l-.076.022v8.606c0 .653-.535 1.182-1.192 1.182H3.507c-.656 0-1.191-.53-1.191-1.182v-8.67zm20.427-4.423a.976.976 0 0 0-.98-.969h-1.628v2.68a.675.675 0 0 1-.677.673.675.675 0 0 1-.677-.672V7.54H6.911v2.68a.675.675 0 0 1-.677.672.675.675 0 0 1-.676-.672V7.54H4.083c-.54 0-.98.435-.98.968v3.25l7.6 2.221v-.332c0-.372.304-.673.677-.673h3.087c.373 0 .677.3.677.673v.347l7.6-2.175V8.51zM13.79 15.88v-1.56h-1.734v1.56h1.734zm8.387-2.499l-7.033 2.013v1.159a.675.675 0 0 1-.677.672H11.38a.675.675 0 0 1-.677-.672v-1.171l-7.034-2.056v4.899h.978a2.257 2.257 0 0 1 2.264 2.246v.966h12.025v-.966a2.258 2.258 0 0 1 2.264-2.246h.977v-4.844zm0 6.19H21.2a.907.907 0 0 0-.911.9v.966h1.888V19.57zm-16.62.9c0-.496-.408-.9-.91-.9h-.978v1.866h1.889v-.966zm4.59-18.656h5.042c.922 0 1.662.808 1.662 1.79v.709c0 .383-.292.701-.664.701-.372 0-.664-.318-.664-.701v-.708c0-.218-.155-.388-.334-.388h-5.042c-.179 0-.334.17-.334.388v.708c0 .383-.292.701-.664.701-.372 0-.664-.318-.664-.701v-.708c0-.983.74-1.79 1.662-1.79z"/>
    </g>
</svg>
