<svg xmlns="http://www.w3.org/2000/svg" width="20" height="20" viewBox="0 0 20 20">
    <path fill="#67757F" fill-rule="evenodd" d="M1.563 2C.7 2 0 2.748 0 3.667v14.666C0 19.253.7 20 1.563 20h16.875c.861 0 1.562-.748 1.562-1.667V3.667C20 2.747 19.3 2 18.437 2H1.563zM18 6H2v2h16v9.16c0 .463-.359.84-.8.84H2.8c-.441 0-.8-.377-.8-.84V4.84c0-.463.359-.84.8-.84h14.4c.441 0 .8.377.8.84V6zM3 10c0 .556.452 1 1.01 1h1.98a1 1 0 1 0 0-2H4.01A1 1 0 0 0 3 10zm5 0c0 .556.452 1 1.01 1h1.98a1 1 0 1 0 0-2H9.01A1 1 0 0 0 8 10zm5 0c0 .556.452 1 1.01 1h1.98a1 1 0 1 0 0-2h-1.98A1 1 0 0 0 13 10zM3 13c0 .556.452 1 1.01 1h1.98a1 1 0 1 0 0-2H4.01A1 1 0 0 0 3 13zm5 0c0 .556.452 1 1.01 1h1.98a1 1 0 1 0 0-2H9.01A1 1 0 0 0 8 13zm5 0c0 .556.452 1 1.01 1h1.98a1 1 0 1 0 0-2h-1.98A1 1 0 0 0 13 13zM3 16c0 .556.452 1 1.01 1h1.98a1 1 0 1 0 0-2H4.01A1 1 0 0 0 3 16zm5 0c0 .556.452 1 1.01 1h1.98a1 1 0 1 0 0-2H9.01A1 1 0 0 0 8 16zm5 0c0 .556.452 1 1.01 1h1.98a1 1 0 1 0 0-2h-1.98A1 1 0 0 0 13 16zM5 0a2 2 0 0 1 2 2H3a2 2 0 0 1 2-2zm10 0a2 2 0 0 1 2 2h-4a2 2 0 0 1 2-2z"/>
</svg>
