<svg xmlns="http://www.w3.org/2000/svg" width="25" height="25" viewBox="0 0 25 25">
    <path fill="#A2A6A9" fill-rule="nonzero" d="M20.25 22.917V7.56L14.505 1.75H4.75v21.167h15.5zm.75 1.5H4a.75.75 0 0 1-.75-.75V1A.75.75 0 0 1 4 .25h10.818c.2 0 .393.08.534.223l6.181 6.253a.75.75 0 0 1 .217.527v16.414a.75.75 0 0 1-.75.75zM15.568 6.503V2.8l-1.046-1.05h-.454v5.503c0 .414.336.75.75.75h5.432v-.43l-1.05-1.07h-3.632zm-1.854 4.759h3.238a.75.75 0 0 0 0-1.5h-3.238a.75.75 0 0 0 0 1.5zm0 4.048h3.238a.75.75 0 0 0 0-1.5h-3.238a.75.75 0 0 0 0 1.5zm0 4.047h3.238a.75.75 0 0 0 0-1.5h-3.238a.75.75 0 0 0 0 1.5zm-5.147-9.41a.75.75 0 0 0-1.039 1.082l.911.874a.75.75 0 0 0 1.039 0l1.518-1.457a.75.75 0 1 0-1.04-1.082l-.998.958-.391-.376zm0 4.047a.75.75 0 1 0-1.039 1.082l.911.875a.75.75 0 0 0 1.039 0l1.518-1.458a.75.75 0 1 0-1.04-1.082l-.998.959-.391-.376zm0 4.048a.75.75 0 0 0-1.039 1.082l.911.874a.75.75 0 0 0 1.039 0l1.518-1.457a.75.75 0 1 0-1.04-1.082l-.998.958-.391-.375z"/>
</svg>
