<svg xmlns="http://www.w3.org/2000/svg" width="20" height="20" viewBox="0 0 20 20">
    <path fill="#67757F" fill-rule="nonzero" d="M16.369 9.873c0-.497-.066-.977-.177-1.44L18 7.414l-1.817-3.08-1.901 1.023c-.715-.662-1.732-1.161-2.64-1.445V2H8.007v1.913c-.909.282-1.74.781-2.453 1.443L3.793 4.333 2 7.413l1.82 1.02a6.004 6.004 0 0 0-.174 1.44c0 .496.069.976.18 1.44l-1.804 1.02 1.815 3.08 1.715-1.022a6.435 6.435 0 0 0 2.456 1.444V18h3.633v-2.165c.909-.281 1.928-.783 2.64-1.444l1.856 1.022 1.84-3.08-1.797-1.02c.112-.463.189-.944.189-1.44zm2.596.722a2 2 0 0 1 .729 2.764l-1.84 3.08a2 2 0 0 1-2.682.725l-.736-.405c-.255.155-.521.3-.795.432V18a2 2 0 0 1-2 2H8.008a2 2 0 0 1-2-2v-.844a8.416 8.416 0 0 1-.598-.352l-.55.327a2 2 0 0 1-2.746-.702L.3 13.349a2 2 0 0 1 .738-2.756l.618-.35a7.51 7.51 0 0 1 0-.731l-.633-.355a2 2 0 0 1-.75-2.75l1.793-3.08a2 2 0 0 1 2.732-.723l.6.348c.2-.13.403-.25.611-.36V2a2 2 0 0 1 2-2h3.633a2 2 0 0 1 2 2v.557c.278.134.548.28.807.439l.788-.424a2 2 0 0 1 2.67.745l1.817 3.08a2 2 0 0 1-.74 2.757l-.623.352a7.72 7.72 0 0 1-.001.744l.606.345zm-4.92-.795c0-2.21-1.802-4-4.023-4C7.803 5.8 6 7.59 6 9.8c0 2.212 1.803 4 4.022 4 2.221 0 4.023-1.788 4.023-4zm-2 0c0 1.104-.903 2-2.023 2A2.01 2.01 0 0 1 8 9.8c0-1.102.905-2 2.022-2 1.12 0 2.023.898 2.023 2z"/>
</svg>
