<svg xmlns="http://www.w3.org/2000/svg" width="25" height="25" viewBox="0 0 25 25">
    <path fill="#00AFD7" fill-rule="evenodd" stroke="#00AFD7" stroke-width=".5" d="M4.083 6.445h17.68c1.149 0 2.084.926 2.084 2.064v3.818a.424.424 0 0 1-.309.406l-.257.074V21.6a.938.938 0 0 1-.942.932H3.507a.938.938 0 0 1-.941-.932v-8.857l-.26-.075A.423.423 0 0 1 2 12.263V8.509c0-1.138.934-2.064 2.083-2.064zM15.19 2.066c.778 0 1.412.691 1.412 1.54v.709c0 .25-.185.451-.414.451-.229 0-.414-.202-.414-.451v-.708c0-.352-.262-.638-.584-.638h-5.042c-.322 0-.584.286-.584.638v.708c0 .25-.186.451-.414.451-.229 0-.414-.202-.414-.451v-.708c0-.85.633-1.54 1.412-1.54h5.042zm7.804 9.943v-3.5c0-.672-.551-1.219-1.23-1.219h-1.878v2.93a.425.425 0 0 1-.427.423.425.425 0 0 1-.427-.422V7.29H6.661v2.93a.425.425 0 0 1-.427.422.425.425 0 0 1-.426-.422V7.29H4.083c-.678 0-1.23.546-1.23 1.218v3.438l8.1 2.367v-.666c0-.234.191-.423.427-.423h3.087c.236 0 .427.19.427.423v.678l8.1-2.317zM11.806 16.13h2.234v-2.06h-2.234v2.06zm10.621 2.345v-5.425l-7.533 2.155v1.348a.425.425 0 0 1-.427.422H11.38a.425.425 0 0 1-.427-.422v-1.359l-7.534-2.201v5.482h1.228c1.11 0 2.014.895 2.014 1.996v1.216h12.525v-1.216c0-1.1.903-1.996 2.014-1.996h1.227zm0 3.125v-2.28H21.2c-.64 0-1.161.517-1.161 1.15v1.217h2.3c.049 0 .088-.04.088-.087zm-16.62.087v-1.216c0-.634-.52-1.15-1.16-1.15H3.419V21.6c0 .048.04.087.088.087h2.3z"/>
</svg>
