<svg xmlns="http://www.w3.org/2000/svg" width="25" height="25" viewBox="0 0 25 25">
    <path fill="#A2A6A9" fill-rule="nonzero" d="M17.038 6.344l1.966-1.966a2.75 2.75 0 1 1 1.077 1.044l-2.033 2.034a.751.751 0 0 1-.153.118 2.75 2.75 0 1 1-5.266.218l-1.095-.8a2.748 2.748 0 0 1-3.495 1.03.765.765 0 0 1-.009.008l-2 2a.747.747 0 0 1-.313.188 2.75 2.75 0 1 1-.686-1.31l1.872-1.872a2.75 2.75 0 1 1 5.05-1.597l1.435 1.05a2.74 2.74 0 0 1 1.906-.768c.662 0 1.27.234 1.744.623zM1 22.75h22c1 0 1 1.5 0 1.5H1c-1 0-1-1.5 0-1.5zm1.024-1.78V16h2v4.97h-2zM8 21.005V12h2v9.005H8zm6 0V14h2v7.005h-2zm6.005 0V9h2v12.005h-2zM16.545 8.47a1.25 1.25 0 1 0-2.5 0 1.25 1.25 0 0 0 2.5 0zm-6.091-2.942a1.25 1.25 0 1 0-2.5 0 1.25 1.25 0 0 0 2.5 0zm-6.177 5.263a1.25 1.25 0 1 0-2.5 0 1.25 1.25 0 0 0 2.5 0zM22.634 3a1.25 1.25 0 1 0-2.5 0 1.25 1.25 0 0 0 2.5 0z"/>
</svg>
