<svg xmlns="http://www.w3.org/2000/svg" width="25" height="25" viewBox="0 0 25 25">
    <path fill="#00AFD7" fill-rule="evenodd" d="M10.331 2.941c-3.071 0-6.212 2.543-6.212 4.825v3.447c0 1.506.643 4.553 2.589 6.1l-5.319 2.86S0 20.785 0 21.552v2.068C0 24.382.623 25 1.39 25h17.808c.767 0 1.39-.618 1.39-1.38v-2.068c0-.812-1.39-1.379-1.39-1.379l-5.185-2.848c1.927-1.503 2.45-4.456 2.45-6.112V7.766c0-2.282-3.06-4.825-6.132-4.825m.002 1.47c2.427 0 4.577 2.027 4.577 3.248v3.507c0 1.301-.41 3.786-1.86 4.913a1.658 1.658 0 0 0-.635 1.445c.048.555.374 1.051.87 1.318l5.29 2.896c.047.026.106.053.156.075.124.05.277.139.387.216v1.5H1.471v-1.485c.121-.085.29-.186.421-.247.04-.016.08-.035.117-.057l5.428-2.91a1.651 1.651 0 0 0 .25-2.755c-1.408-1.116-2.013-3.589-2.013-4.91V7.66c0-1.192 2.276-3.247 4.659-3.247zm8.785 8.824v1.47S25 17.893 25 17.87v2.811c0 .762-.59 1.379-1.315 1.379h-1.628V20.68h1.628v-1.584c-.103-.075-5.984-2.988-5.984-3.017l-.054-2.844s1.62-3.12 1.62-4.397l-.149-4.426C17.968.869 13.236 1.47 13.236 1.47h-1.47S12.402.168 14.29.138c4.976-.078 6.299 4.274 6.299 4.274v4.412l-1.471 4.411z"/>
</svg>
