<svg xmlns="http://www.w3.org/2000/svg" width="25" height="25" viewBox="0 0 25 25">
    <path fill="#A2A6A9" fill-rule="nonzero" d="M18.802 10.987a1120.58 1120.58 0 0 0-3.555 1.896c-.716.388-1.374.532-2.232.534-.864-.002-1.496-.149-2.135-.466-.389-.193-6.19-3.309-7.299-3.91.326.176-.327-.167-.488-.274-.511-.342-.843-.805-.843-1.437 0-.65.342-1.116.876-1.467.086-.056.173-.107.272-.161l.182-.097c.074-.04.98-.523 3.618-1.926 2.097-1.116 3.286-1.75 3.555-1.895.716-.388 1.374-.532 2.232-.534.864.002 1.496.148 2.136.466.388.193 6.2 3.315 7.299 3.91-.32-.173.327.167.487.274.512.341.843.805.843 1.437 0 .649-.342 1.116-.876 1.466a3.682 3.682 0 0 1-.272.162l-.182.096c-.073.04-.98.523-3.618 1.926zm-5.8-8.237c-.632 0-1.05.09-1.535.353-.273.148-1.458.78-3.565 1.9A2719.85 2719.85 0 0 0 4.3 6.922l-.186.098a2.24 2.24 0 0 0-.164.097c-.154.101-.199.163-.199.213 0 .043.04.099.176.19.05.032.105.065.174.1.024.014.159.082.196.102 1.079.585 6.887 3.705 7.25 3.885.435.216.843.31 1.452.31.632 0 1.051-.091 1.534-.353.275-.149 1.465-.783 3.566-1.901 2.64-1.404 3.538-1.882 3.603-1.918l.186-.099c.065-.035.117-.066.164-.096.154-.102.199-.163.199-.213 0-.043-.04-.099-.176-.19a1.907 1.907 0 0 0-.174-.101l-.196-.101c-1.068-.58-6.887-3.705-7.25-3.886-.435-.215-.843-.309-1.452-.309zm-.252 15.667c-2 0-9.766-5.1-9.925-5.212-.503-.358-.825-.838-.825-1.478 0-.727.385-1.218.991-1.6a.75.75 0 0 1 .799 1.27c-.215.136-.29.23-.29.33 0 .078 7.25 4.69 9.25 4.69S22 11.82 22 11.733c0-.097-.086-.2-.32-.336a.75.75 0 1 1 .759-1.294c.645.378 1.061.87 1.061 1.63 0 .659-.332 1.142-.857 1.51-.086.06-7.893 5.174-9.893 5.174zm0 5c-2 0-9.766-5.1-9.925-5.212-.503-.358-.825-.838-.825-1.478 0-.727.385-1.218.991-1.6a.75.75 0 0 1 .799 1.27c-.215.136-.29.23-.29.33 0 .078 7.25 4.69 9.25 4.69S22 16.82 22 16.733c0-.097-.086-.2-.32-.336a.75.75 0 1 1 .759-1.294c.645.378 1.061.87 1.061 1.63 0 .659-.332 1.142-.857 1.51-.086.06-7.893 5.174-9.893 5.174z"/>
</svg>
