<svg xmlns="http://www.w3.org/2000/svg" width="25" height="25" viewBox="0 0 25 25">
    <path fill="#A2A6A9" fill-rule="nonzero" d="M14.08 17.756h-3.5V22.5c0 .69-.56 1.25-1.25 1.25h-4c-.69 0-1.25-.56-1.25-1.25v-8.722a.75.75 0 1 1 1.5 0v8.472h3.5v-5.994h6.5v5.994h3.5v-8.472a.75.75 0 0 1 1.5 0V22.5c0 .69-.56 1.25-1.25 1.25h-4c-.69 0-1.25-.56-1.25-1.25v-4.744zm9.422-4.973L12.5 3.003l-11.002 9.78a.75.75 0 1 1-.996-1.121l11.5-10.223a.75.75 0 0 1 .996 0l11.5 10.223a.75.75 0 0 1-.996 1.12zm-.252-6.95V2.75h-3.083a.75.75 0 1 1 0-1.5h4.583v4.583a.75.75 0 1 1-1.5 0z"/>
</svg>
