<svg xmlns="http://www.w3.org/2000/svg" width="136" height="16" viewBox="0 0 136 16">
    <g fill="none" fill-rule="evenodd">
        <path fill="#231F20" d="M62 11.087c-.043 1.983-1.847 2.794-3.759 2.794-1.434 0-2.608-.512-2.608-1.706 0-.918.543-1.75 2.978-1.9 1.325-.085 2.651-.234 3.39-.874v1.686zm1.804-3.627c0-2.048-1.521-3.414-4.52-3.414-2.869 0-4.715 1.429-4.846 3.628h1.912c.196-1.601 1.74-1.963 2.913-1.963 1.89 0 2.738.66 2.738 1.535 0 .875-.891 1.366-3.63 1.494-2.89.15-4.563 1.173-4.563 3.435 0 2.368 2.064 3.392 4.368 3.392 1.738 0 3.042-.555 3.847-1.515.021.512.13.94.282 1.259h1.826c-.175-.426-.327-1.237-.327-1.792v-6.06zM103.617 11.087c-.043 1.983-1.846 2.794-3.76 2.794-1.434 0-2.607-.512-2.607-1.706 0-.918.544-1.75 2.978-1.9 1.326-.085 2.65-.234 3.39-.874v1.686zm1.805-3.627c0-2.048-1.522-3.414-4.521-3.414-2.869 0-4.716 1.429-4.846 3.628h1.913c.195-1.601 1.738-1.963 2.911-1.963 1.89 0 2.738.66 2.738 1.535 0 .875-.89 1.366-3.628 1.494-2.89.15-4.565 1.173-4.565 3.435 0 2.368 2.065 3.392 4.369 3.392 1.739 0 3.042-.555 3.846-1.515.022.512.131.94.283 1.259h1.825c-.173-.426-.325-1.237-.325-1.792v-6.06zM133.174 11.087c-.045 1.983-1.848 2.794-3.76 2.794-1.434 0-2.608-.512-2.608-1.706 0-.918.543-1.75 2.978-1.9 1.325-.085 2.651-.234 3.39-.874v1.686zm1.804 2.432v-6.06c0-2.047-1.522-3.413-4.522-3.413-2.867 0-4.715 1.429-4.846 3.628h1.913c.195-1.601 1.738-1.963 2.912-1.963 1.89 0 2.739.66 2.739 1.535 0 .875-.892 1.366-3.63 1.494-2.89.15-4.564 1.173-4.564 3.435 0 2.368 2.065 3.392 4.368 3.392 1.74 0 3.043-.555 3.847-1.515.022.512.13.94.283 1.259h1.825c-.174-.426-.325-1.237-.325-1.792zM48.483 7.737h-4.498V2.233h4.498c1.76 0 3.02.81 3.02 2.752 0 1.942-1.26 2.752-3.02 2.752m0-7.232h-6.345V6.81l1.191.936-1.191.935v6.629h1.847V9.466h4.498c3.108 0 4.847-1.879 4.847-4.48 0-2.625-1.74-4.481-4.847-4.481M82.505 14.048c-2.106 0-3.837-1.851-3.837-4.137 0-2.33 1.73-4.224 3.837-4.224 2.13 0 3.86 1.894 3.86 4.224 0 2.286-1.73 4.137-3.86 4.137m0-10.06c-3.238 0-5.744 2.657-5.744 5.923 0 3.222 2.506 5.835 5.744 5.835 3.26 0 5.745-2.613 5.745-5.835 0-3.266-2.484-5.922-5.745-5.922M71.107 4.046c-1.348 0-2.5.555-3.26 1.472V4.324h-1.783v10.987h1.848V8.59c0-1.642 1.239-2.88 2.934-2.88 1.782 0 2.738 1.238 2.738 2.923v6.678h1.826V8.698c0-2.732-1.566-4.652-4.303-4.652M91.382 5.56V4.325h-1.781V15.31h1.846V8.953c0-2.197 1.653-3.2 3.586-3.093V4.067c-1.282-.149-2.803.32-3.65 1.494M119.395 4.046c-1.608 0-2.804.747-3.5 1.877-.694-1.173-1.867-1.877-3.454-1.877a3.658 3.658 0 0 0-2.978 1.472V4.324h-1.782v10.987h1.848V8.59c0-1.642 1.13-2.88 2.651-2.88 1.652 0 2.52 1.046 2.52 2.752v6.849h1.826V8.59c0-1.642 1.109-2.88 2.63-2.88 1.717 0 2.543 1.046 2.543 2.752v6.849h1.847V8.505c0-2.73-1.564-4.459-4.15-4.459"/>
        <path fill="#00B4DE" d="M5.283 8.307a.595.595 0 0 1-.6-.59c0-.326.268-.59.6-.59h8.488a4.484 4.484 0 0 0-1.311-2.615l-1.046-1.026c-.011-.012-.024-.023-.037-.035L7.862 0 0 7.717l7.862 7.716L11.359 12c.018-.017.038-.034.055-.053l1.046-1.025.053-.054a4.475 4.475 0 0 0 1.258-2.56H5.283z"/>
        <path fill="#231F20" d="M38.344.504H27.476v2.774h3.975v11.976h3.018V3.278h3.974V.504zM22.308 12.522H18.39v-3.56h3.854c1.369 0 2.122.643 2.122 1.812 0 1.446-1.118 1.748-2.058 1.748zM18.39 3.215h3.918c1.006 0 1.632.574 1.632 1.497 0 .88-.687 1.517-1.632 1.517H18.39V3.215zm7.104 4.167c.888-.681 1.378-1.681 1.378-2.837 0-1.263-.388-2.257-1.15-2.956-.788-.72-1.936-1.084-3.414-1.084h-6.936V6.37l1.714 1.346-1.714 1.345v6.193h7.32c2.89 0 4.756-1.718 4.756-4.376 0-1.578-.675-2.783-1.954-3.497z"/>
    </g>
</svg>
