<svg xmlns="http://www.w3.org/2000/svg" width="111" height="14" viewBox="0 0 111 14">
    <g fill="#5B6770" fill-rule="evenodd">
        <path d="M52.273 6.389c0-1.702-1.235-2.837-3.706-2.837-2.347 0-3.854 1.184-3.952 3.01h1.556c.148-1.333 1.433-1.629 2.372-1.629 1.556 0 2.248.543 2.248 1.283 0 .715-.717 1.135-2.965 1.233-2.371.124-3.73.987-3.73 2.862 0 1.973 1.68 2.812 3.582 2.812 1.433 0 2.495-.469 3.137-1.258.025.419.1.789.223 1.036h1.482c-.148-.346-.272-1.036-.272-1.48V6.389h.025zM50.79 9.398c-.025 1.653-1.507 2.319-3.064 2.319-1.16 0-2.124-.42-2.124-1.431 0-.765.444-1.455 2.445-1.579 1.087-.074 2.174-.197 2.767-.715v1.406h-.024zM86.29 6.389c0-1.702-1.236-2.837-3.706-2.837-2.347 0-3.854 1.184-3.953 3.01h1.557c.148-1.333 1.433-1.629 2.371-1.629 1.557 0 2.248.543 2.248 1.283 0 .715-.716 1.135-2.964 1.233-2.372.124-3.73.987-3.73 2.862 0 1.973 1.68 2.812 3.582 2.812 1.433 0 2.495-.469 3.137-1.258.025.419.099.789.222 1.036h1.483c-.149-.346-.272-1.036-.272-1.48V6.389h.025zm-1.483 3.009c-.024 1.653-1.507 2.319-3.063 2.319-1.16 0-2.124-.42-2.124-1.431 0-.765.444-1.455 2.445-1.579 1.087-.074 2.174-.197 2.767-.715v1.406h-.025zM110.45 11.42V6.39c0-1.702-1.236-2.837-3.706-2.837-2.347 0-3.854 1.184-3.952 3.01h1.556c.148-1.333 1.433-1.629 2.371-1.629 1.557 0 2.248.543 2.248 1.283 0 .715-.716 1.135-2.964 1.233-2.372.124-3.73.987-3.73 2.862 0 1.973 1.68 2.812 3.582 2.812 1.433 0 2.495-.469 3.137-1.258.025.419.099.789.222 1.036h1.483a5.453 5.453 0 0 1-.247-1.48zm-1.483-2.022c-.024 1.653-1.506 2.319-3.063 2.319-1.16 0-2.124-.42-2.124-1.431 0-.765.444-1.455 2.445-1.579 1.087-.074 2.174-.197 2.767-.715v1.406h-.025zM39.748.592H34.56v5.254l.964.79-.964.789v5.5h1.507V8.041h3.681c2.545 0 3.953-1.554 3.953-3.724 0-2.171-1.408-3.725-3.953-3.725zm0 6.019h-3.68V2.023h3.68c1.433 0 2.47.666 2.47 2.294 0 1.628-1.037 2.294-2.47 2.294zM67.564 3.503c-2.643 0-4.693 2.22-4.693 4.933 0 2.689 2.05 4.86 4.693 4.86 2.668 0 4.694-2.171 4.694-4.86 0-2.738-2.05-4.933-4.694-4.933zm0 8.362c-1.729 0-3.137-1.53-3.137-3.429 0-1.949 1.408-3.503 3.137-3.503 1.73 0 3.162 1.579 3.162 3.503-.024 1.875-1.432 3.429-3.162 3.429zM58.226 3.552c-1.111 0-2.05.469-2.668 1.233V3.8h-1.457v9.126h1.507V7.326c0-1.357 1.013-2.393 2.396-2.393 1.457 0 2.248 1.036 2.248 2.442v5.55h1.482V7.4c.025-2.27-1.26-3.848-3.508-3.848M74.802 4.81V3.774h-1.457v9.127h1.507V7.622c0-1.825 1.359-2.664 2.94-2.565v-1.48c-1.038-.148-2.298.246-2.99 1.233M97.703 3.552c-1.31 0-2.298.617-2.866 1.554-.568-.987-1.532-1.554-2.816-1.554-1.013 0-1.853.469-2.421 1.233V3.8h-1.458v9.126h1.507V7.326c0-1.357.914-2.393 2.174-2.393 1.359 0 2.05.864 2.05 2.294v5.698h1.483V7.326c0-1.357.914-2.393 2.149-2.393 1.408 0 2.075.864 2.075 2.294v5.698h1.507V7.252c.025-2.27-1.26-3.7-3.384-3.7M4.447 7.08a.495.495 0 0 1-.494-.494c0-.271.222-.493.494-.493h6.917a3.739 3.739 0 0 0-1.038-2.146L6.546.173.124 6.586l6.422 6.413 2.866-2.861.05-.05.864-.863.05-.049a3.673 3.673 0 0 0 1.037-2.121H4.447v.024M31.448.592h-8.869v2.319h3.236v9.94h2.47v-9.94h3.261V.592h-.098M20.949 6.315a2.969 2.969 0 0 0 1.136-2.368c0-1.061-.321-1.875-.939-2.467-.642-.592-1.58-.888-2.791-.888h-5.657v4.884l1.408 1.11-1.408 1.11v5.155h5.978c2.371 0 3.878-1.43 3.878-3.65 0-1.283-.543-2.294-1.605-2.886zm-5.806-3.478h3.212c.815 0 1.334.468 1.334 1.233 0 .74-.568 1.258-1.334 1.258h-3.212V2.837zm3.212 7.745h-3.212v-2.96h3.162c1.112 0 1.73.543 1.73 1.505 0 1.208-.914 1.455-1.68 1.455z"/>
    </g>
</svg>
